<svg width="280" height="185" viewBox="0 0 280 185" fill="none" xmlns="http://www.w3.org/2000/svg">
<path fill-rule="evenodd" clip-rule="evenodd" d="M61.3009 31.0929C69.5313 35.7585 74.4067 41.3901 68.5548 43.4862C64.5353 44.9256 59.2284 43.2642 54.3398 40.3035C56.5052 37.0566 58.8201 33.9708 61.3009 31.0929ZM40.9327 24.1861C44.0362 24.4897 47.3643 25.2731 50.6367 26.3628C48.714 28.273 46.8285 30.3124 44.9832 32.4623C42.3427 29.4097 40.7198 26.3633 40.9327 24.1861ZM75.8605 18.2237C76.6978 20.0895 76.671 21.947 75.3956 23.5659C73.6593 25.7696 70.8738 25.7128 67.8714 24.3536C70.3805 22.0946 73.0386 20.0392 75.8605 18.2237ZM53.8309 7.63457C59.1218 6.73173 65.9527 9.09499 70.7137 12.5263C67.0409 13.9404 63.4701 15.9265 60.0059 18.3834C56.7479 14.9164 54.2206 10.7971 53.8309 7.63457Z" fill="#71AF7D"/>
<path d="M84.5269 12.083C90.8299 12.083 86.2192 49.557 73.5263 148.279C48.8246 148.279 15.1793 143.24 7.64453 136.795C37.5431 13.8943 78.2239 12.083 84.5269 12.083Z" fill="#FBF2D4"/>
<path d="M95.5042 47.9036C87.8648 38.3991 114.895 25.1983 130.409 29.0245C127.695 40.0328 103.144 57.4081 95.5042 47.9036Z" fill="#71AF7D"/>
<path d="M94.4961 20.4642C89.8439 13.2111 107.275 3.91429 117.5 6.70325C115.711 14.7272 99.1483 27.7174 94.4961 20.4642Z" fill="#71AF7D"/>
<path d="M262.045 40.5832C244.687 44.1976 250.317 20.995 255.864 6.03846C267.492 17.7966 279.402 36.9688 262.045 40.5832Z" fill="#71AF7D"/>
<path d="M138.12 120.724C130.281 120.724 123.326 118.792 117.255 114.928C116.482 116.363 115.93 118.129 115.599 120.227C115.267 122.214 115.93 123.815 117.586 125.029C119.462 126.464 122.609 127.292 127.025 127.513C131.441 127.623 137.292 127.955 144.578 128.507C148.773 128.727 153.244 129.169 157.991 129.831C162.849 130.494 167.375 131.653 171.57 133.309C175.875 134.965 179.353 137.338 182.003 140.43C184.652 143.631 185.977 147.881 185.977 153.18C185.977 158.921 184.542 163.779 181.671 167.753C178.801 171.727 175.047 174.929 170.411 177.357C165.774 179.786 160.641 181.553 155.01 182.657C149.491 183.76 144.026 184.312 138.616 184.312C129.674 184.312 121.891 183.098 115.267 180.669C108.644 178.351 103.51 175.039 99.8669 170.734C96.3342 166.539 94.5679 161.681 94.5679 156.161C94.5679 151.304 95.9478 147.219 98.7078 143.907C101.468 140.595 104.283 138.001 107.153 136.124C105.387 135.02 103.952 133.64 102.848 131.984C101.854 130.218 101.357 128.065 101.357 125.526C101.357 121.552 102.461 118.24 104.669 115.59C106.988 112.941 109.03 111.009 110.796 109.794C107.595 106.593 105.056 102.729 103.179 98.2026C101.413 93.6763 100.529 88.6532 100.529 83.1334C100.529 75.4056 102.185 68.7265 105.497 63.0963C108.92 57.466 113.501 53.1053 119.242 50.0142C124.982 46.8127 131.275 45.2119 138.12 45.2119C142.646 45.2119 146.951 46.0399 151.036 47.6959C157.77 47.6959 163.125 47.6407 167.099 47.5303C171.073 47.4199 174.385 47.2543 177.035 47.0335C179.684 46.7023 182.279 46.3159 184.818 45.8743L183.162 59.122H167.264C169.804 62.2131 171.846 65.801 173.392 69.8857C175.047 73.86 175.875 78.2759 175.875 83.1334C175.875 88.874 174.771 94.0627 172.564 98.6994C170.356 103.336 167.43 107.31 163.787 110.622C160.144 113.824 156.059 116.308 151.533 118.074C147.117 119.84 142.646 120.724 138.12 120.724ZM137.954 107.476C142.591 107.476 146.51 106.372 149.711 104.164C152.913 101.846 155.342 98.8098 156.998 95.0563C158.764 91.3028 159.647 87.3285 159.647 83.1334C159.647 78.8279 158.764 74.8536 156.998 71.2105C155.342 67.457 152.913 64.421 149.711 62.1027C146.51 59.7844 142.591 58.6252 137.954 58.6252C133.428 58.6252 129.564 59.7844 126.362 62.1027C123.161 64.421 120.732 67.457 119.076 71.2105C117.531 74.964 116.758 78.9383 116.758 83.1334C116.758 87.3285 117.531 91.3028 119.076 95.0563C120.732 98.8098 123.161 101.846 126.362 104.164C129.564 106.372 133.428 107.476 137.954 107.476ZM110.796 155.333C110.796 160.632 113.335 164.551 118.414 167.091C123.492 169.74 130.061 171.065 138.12 171.065C143.639 171.065 148.773 170.347 153.52 168.912C158.377 167.587 162.297 165.6 165.277 162.951C168.258 160.301 169.748 156.989 169.748 153.015C169.748 149.261 168.424 146.557 165.774 144.901C163.235 143.355 159.978 142.362 156.004 141.92C152.03 141.589 147.945 141.313 143.75 141.092C139.444 140.871 135.139 140.65 130.833 140.43C126.528 140.319 122.554 140.043 118.91 139.602C116.482 141.478 114.495 143.852 112.949 146.722C111.514 149.703 110.796 152.573 110.796 155.333Z" fill="#71AF7D"/>
<path d="M246.32 67.733C244.553 64.6418 242.456 62.5995 240.027 61.6059C237.598 60.6123 234.783 60.1155 231.582 60.1155C226.614 60.1155 222.695 61.7715 219.824 65.0834C216.954 68.3953 214.856 72.8112 213.532 78.3311C212.207 83.7406 211.379 89.7572 211.048 96.3811V101.846C211.048 108.028 211.158 114.21 211.379 120.392C211.71 126.575 212.593 132.647 214.028 138.608H192.335C193.771 132.647 194.599 126.575 194.819 120.392C195.151 114.21 195.316 108.028 195.316 101.846V83.9614C195.316 77.9999 195.095 73.1424 194.654 69.3889C194.212 65.525 193.55 62.2683 192.667 59.6188C191.783 56.9692 190.569 54.4301 189.023 52.0013V51.0078L211.048 46.3711V64.7522H212.207C213.642 59.0116 216.457 54.3197 220.652 50.6766C224.958 47.0335 230.257 45.2119 236.55 45.2119C239.861 45.2119 242.456 45.7087 244.333 46.7023C246.32 47.5855 247.313 48.027 247.313 48.027V67.733H246.32Z" fill="#71AF7D"/>
<path d="M259.483 101.846V83.9614C259.483 77.9999 259.263 73.1424 258.821 69.3889C258.379 65.525 257.717 62.2683 256.834 59.6188C255.951 56.9692 254.736 54.4301 253.191 52.0013V51.0078L275.215 46.3711V101.846C275.215 108.028 275.325 114.21 275.546 120.392C275.877 126.575 276.76 132.647 278.196 138.608H256.503C257.938 132.647 258.766 126.575 258.987 120.392C259.318 114.21 259.483 108.028 259.483 101.846Z" fill="#71AF7D"/>
<path d="M70.3024 136.392C88.838 115.439 70.3024 12.083 85.4129 12.083C91.2557 13.4933 89.3215 129.784 88.838 136.392C88.3544 143 95.218 144.787 98.7102 144.854V148.48C81.8536 148.682 50.8401 148.561 61.6391 146.466C75.1378 143.847 61.5845 146.247 70.3024 136.392Z" fill="#71AF7D"/>
<path d="M6.63652 130.752C13.2851 127.527 33.8354 12.083 85.4126 12.083C35.4472 33.842 29.7918 116.848 30.2094 125.915C81.7866 129.139 71.4443 148.413 74.9365 148.48C74.9365 148.48 58.0127 148.077 38.6709 145.66C19.329 143.242 -8.37824 142.921 2.42073 140.826C15.9194 138.207 -5.20186 136.495 6.63652 130.752Z" fill="#71AF7D"/>
</svg>
