<svg width="40" height="40" viewBox="0 0 40 40" fill="none" xmlns="http://www.w3.org/2000/svg">
<path d="M23.3285 6.66675C23.9298 6.66674 24.5199 6.82939 25.0363 7.13748C25.5528 7.44556 25.9762 7.88759 26.2618 8.41675L27.0718 9.91675C27.3575 10.4459 27.7809 10.8879 28.2973 11.196C28.8137 11.5041 29.4038 11.6668 30.0052 11.6667H33.3335C34.2176 11.6667 35.0654 12.0179 35.6905 12.6431C36.3156 13.2682 36.6668 14.116 36.6668 15.0001V30.0001C36.6668 30.8841 36.3156 31.732 35.6905 32.3571C35.0654 32.9822 34.2176 33.3334 33.3335 33.3334H6.66683C5.78277 33.3334 4.93493 32.9822 4.30981 32.3571C3.68469 31.732 3.3335 30.8841 3.3335 30.0001V15.0001C3.3335 14.116 3.68469 13.2682 4.30981 12.6431C4.93493 12.0179 5.78277 11.6667 6.66683 11.6667H9.99516C10.5959 11.6668 11.1854 11.5045 11.7015 11.197C12.2175 10.8896 12.6409 10.4484 12.9268 9.92008L13.7418 8.41341C14.0278 7.88513 14.4511 7.44393 14.9672 7.13647C15.4832 6.82901 16.0728 6.66672 16.6735 6.66675H23.3285Z" stroke="#0E4719" stroke-width="3.33333" stroke-linecap="round" stroke-linejoin="round"/>
<path d="M20 26.6667C22.7614 26.6667 25 24.4282 25 21.6667C25 18.9053 22.7614 16.6667 20 16.6667C17.2386 16.6667 15 18.9053 15 21.6667C15 24.4282 17.2386 26.6667 20 26.6667Z" stroke="#0E4719" stroke-width="3.33333" stroke-linecap="round" stroke-linejoin="round"/>
</svg>
