<svg width="32" height="32" viewBox="0 0 32 32" fill="none" xmlns="http://www.w3.org/2000/svg">
<path d="M15.9654 11.9739L4.77107 23.1682C4.27202 23.6671 3.99158 24.3438 3.99143 25.0495V26.8376C3.99128 27.5433 3.71084 28.2199 3.21179 28.7188C3.71069 28.2198 4.38739 27.9394 5.09304 27.9392H6.88116C7.58681 27.9391 8.26351 27.6586 8.7624 27.1596L19.9568 15.9652" stroke="#0E4719" stroke-width="2.66089" stroke-linecap="round" stroke-linejoin="round"/>
<path d="M23.9478 11.974L24.48 12.5062C24.742 12.7683 24.9499 13.0794 25.0918 13.4218C25.2336 13.7643 25.3066 14.1313 25.3066 14.5019C25.3066 14.8725 25.2336 15.2395 25.0918 15.5819C24.9499 15.9243 24.742 16.2355 24.48 16.4976C24.2179 16.7596 23.9068 16.9675 23.5644 17.1093C23.2219 17.2512 22.8549 17.3242 22.4843 17.3242C22.1137 17.3242 21.7467 17.2512 21.4043 17.1093C21.0618 16.9675 20.7507 16.7596 20.4886 16.4976L15.433 11.4419C14.9037 10.9126 14.6063 10.1947 14.6063 9.4462C14.6063 9.07557 14.6793 8.70857 14.8212 8.36615C14.963 8.02373 15.1709 7.71261 15.433 7.45053C15.695 7.18846 16.0062 6.98057 16.3486 6.83873C16.691 6.6969 17.058 6.6239 17.4286 6.6239C18.1771 6.6239 18.895 6.92125 19.4243 7.45053L19.9565 7.98271L24.48 3.4592C25.0093 2.92992 25.7271 2.63257 26.4756 2.63257C27.2242 2.63257 27.942 2.92992 28.4713 3.4592C29.0006 3.98848 29.2979 4.70635 29.2979 5.45487C29.2979 6.20339 29.0006 6.92125 28.4713 7.45053L23.9478 11.974Z" stroke="#0E4719" stroke-width="2.66089" stroke-linecap="round" stroke-linejoin="round"/>
<path d="M2.66089 29.2698L3.21169 28.719" stroke="#0E4719" stroke-width="2.66089" stroke-linecap="round" stroke-linejoin="round"/>
</svg>
