<svg width="16" height="35" viewBox="0 0 16 35" fill="none" xmlns="http://www.w3.org/2000/svg">
<path d="M10.8564 4.46976V21.2938C12.0739 21.9965 13.0254 23.0813 13.5634 24.3798C14.1013 25.6783 14.1957 27.1181 13.8319 28.4757C13.468 29.8333 12.6663 31.033 11.551 31.8886C10.4357 32.7442 9.06916 33.208 7.66335 33.208C6.25755 33.208 4.89103 32.7442 3.77573 31.8886C2.66042 31.033 1.85868 29.8333 1.49483 28.4757C1.13098 27.1181 1.22536 25.6783 1.76334 24.3798C2.30132 23.0813 3.25283 21.9965 4.47029 21.2938V4.46976C4.47029 3.62308 4.8067 2.81107 5.40552 2.21238C6.00433 1.61369 6.8165 1.27734 7.66335 1.27734C8.51021 1.27734 9.32237 1.61369 9.92119 2.21238C10.52 2.81107 10.8564 3.62308 10.8564 4.46976Z" stroke="#0E4719" stroke-width="2.55445" stroke-linecap="round" stroke-linejoin="round"/>
</svg>
